<svg id="visual" viewBox="0 0 900 600" width="900" height="600" xmlns="http://www.w3.org/2000/svg" xmlns:xlink="http://www.w3.org/1999/xlink" version="1.1"><g stroke-width="1" stroke-linejoin="bevel"><path d="M486.9 285L477.9 218L418.1 217Z" fill="#0c2435" stroke="#0c2435"></path><path d="M418.1 217L398.1 312L486.9 285Z" fill="#1d4e6b" stroke="#1d4e6b"></path><path d="M477.9 218L400.1 159L418.1 217Z" fill="#1d4e6b" stroke="#1d4e6b"></path><path d="M418.1 217L327.3 236L398.1 312Z" fill="#277297" stroke="#277297"></path><path d="M398.1 312L476.9 364L486.9 285Z" fill="#112e42" stroke="#112e42"></path><path d="M580.7 313L563.7 223L486.9 285Z" fill="#112e42" stroke="#112e42"></path><path d="M486.9 285L563.7 223L477.9 218Z" fill="#19435d" stroke="#19435d"></path><path d="M477.9 218L493.9 139L400.1 159Z" fill="#297ea6" stroke="#297ea6"></path><path d="M400.1 159L327.3 236L418.1 217Z" fill="#081a28" stroke="#081a28"></path><path d="M563.7 223L493.9 139L477.9 218Z" fill="#277297" stroke="#277297"></path><path d="M327.3 236L325.3 292L398.1 312Z" fill="#1d4e6b" stroke="#1d4e6b"></path><path d="M398.1 312L400.1 386L476.9 364Z" fill="#297ea6" stroke="#297ea6"></path><path d="M326.3 368L400.1 386L398.1 312Z" fill="#19435d" stroke="#19435d"></path><path d="M476.9 364L580.7 313L486.9 285Z" fill="#081a28" stroke="#081a28"></path><path d="M421.1 72L336.3 154L400.1 159Z" fill="#112e42" stroke="#112e42"></path><path d="M400.1 159L336.3 154L327.3 236Z" fill="#0c2435" stroke="#0c2435"></path><path d="M651.5 216L575.7 153L563.7 223Z" fill="#297ea6" stroke="#297ea6"></path><path d="M563.7 223L575.7 153L493.9 139Z" fill="#277297" stroke="#277297"></path><path d="M325.3 292L326.3 368L398.1 312Z" fill="#0c2435" stroke="#0c2435"></path><path d="M476.9 364L586.7 363L580.7 313Z" fill="#0c2435" stroke="#0c2435"></path><path d="M658.5 292L651.5 216L563.7 223Z" fill="#246688" stroke="#246688"></path><path d="M500.9 449L586.7 363L476.9 364Z" fill="#277297" stroke="#277297"></path><path d="M577.7 63L476.9 76L493.9 139Z" fill="#15384f" stroke="#15384f"></path><path d="M493.9 139L421.1 72L400.1 159Z" fill="#081a28" stroke="#081a28"></path><path d="M336.3 448L422.1 439L400.1 386Z" fill="#277297" stroke="#277297"></path><path d="M400.1 386L422.1 439L476.9 364Z" fill="#15384f" stroke="#15384f"></path><path d="M476.9 76L421.1 72L493.9 139Z" fill="#205a7a" stroke="#205a7a"></path><path d="M422.1 439L500.9 449L476.9 364Z" fill="#00101c" stroke="#00101c"></path><path d="M327.3 236L244.5 288L325.3 292Z" fill="#00101c" stroke="#00101c"></path><path d="M325.3 292L244.5 288L326.3 368Z" fill="#19435d" stroke="#19435d"></path><path d="M233.5 238L244.5 288L327.3 236Z" fill="#297ea6" stroke="#297ea6"></path><path d="M658.5 292L563.7 223L580.7 313Z" fill="#00101c" stroke="#00101c"></path><path d="M586.7 363L658.5 292L580.7 313Z" fill="#112e42" stroke="#112e42"></path><path d="M644.5 388L658.5 292L586.7 363Z" fill="#0c2435" stroke="#0c2435"></path><path d="M251.5 148L327.3 236L336.3 154Z" fill="#0c2435" stroke="#0c2435"></path><path d="M251.5 148L233.5 238L327.3 236Z" fill="#19435d" stroke="#19435d"></path><path d="M255.5 439L336.3 448L326.3 368Z" fill="#0c2435" stroke="#0c2435"></path><path d="M326.3 368L336.3 448L400.1 386Z" fill="#205a7a" stroke="#205a7a"></path><path d="M422.1 439L478.9 536L500.9 449Z" fill="#1d4e6b" stroke="#1d4e6b"></path><path d="M421.1 72L316.3 76L336.3 154Z" fill="#297ea6" stroke="#297ea6"></path><path d="M316.3 76L251.5 148L336.3 154Z" fill="#246688" stroke="#246688"></path><path d="M575.7 153L577.7 63L493.9 139Z" fill="#00101c" stroke="#00101c"></path><path d="M476.9 76L421.1 0L421.1 72Z" fill="#00101c" stroke="#00101c"></path><path d="M421.1 72L321.3 0L316.3 76Z" fill="#112e42" stroke="#112e42"></path><path d="M644.5 71L577.7 63L575.7 153Z" fill="#297ea6" stroke="#297ea6"></path><path d="M747.4 210L659.5 154L651.5 216Z" fill="#19435d" stroke="#19435d"></path><path d="M651.5 216L659.5 154L575.7 153Z" fill="#112e42" stroke="#112e42"></path><path d="M577.7 462L644.5 388L586.7 363Z" fill="#15384f" stroke="#15384f"></path><path d="M244.5 288L242.5 378L326.3 368Z" fill="#1d4e6b" stroke="#1d4e6b"></path><path d="M157.6 369L242.5 378L244.5 288Z" fill="#081a28" stroke="#081a28"></path><path d="M564.7 538L577.7 462L500.9 449Z" fill="#0c2435" stroke="#0c2435"></path><path d="M500.9 449L577.7 462L586.7 363Z" fill="#1d4e6b" stroke="#1d4e6b"></path><path d="M316.3 76L257.5 86L251.5 148Z" fill="#15384f" stroke="#15384f"></path><path d="M165.6 153L173.6 232L233.5 238Z" fill="#19435d" stroke="#19435d"></path><path d="M486.9 0L421.1 0L476.9 76Z" fill="#0c2435" stroke="#0c2435"></path><path d="M316.3 76L321.3 0L257.5 86Z" fill="#205a7a" stroke="#205a7a"></path><path d="M577.7 63L486.9 0L476.9 76Z" fill="#246688" stroke="#246688"></path><path d="M330.3 529L400.1 516L336.3 448Z" fill="#205a7a" stroke="#205a7a"></path><path d="M336.3 448L400.1 516L422.1 439Z" fill="#112e42" stroke="#112e42"></path><path d="M242.5 378L255.5 439L326.3 368Z" fill="#112e42" stroke="#112e42"></path><path d="M659.5 154L644.5 71L575.7 153Z" fill="#00101c" stroke="#00101c"></path><path d="M577.7 63L565.7 0L486.9 0Z" fill="#112e42" stroke="#112e42"></path><path d="M165.6 153L233.5 238L251.5 148Z" fill="#246688" stroke="#246688"></path><path d="M233.5 238L173.6 232L244.5 288Z" fill="#112e42" stroke="#112e42"></path><path d="M242.5 378L175.6 462L255.5 439Z" fill="#1d4e6b" stroke="#1d4e6b"></path><path d="M400.1 516L478.9 536L422.1 439Z" fill="#15384f" stroke="#15384f"></path><path d="M648.5 0L565.7 0L577.7 63Z" fill="#1d4e6b" stroke="#1d4e6b"></path><path d="M421.1 0L321.3 0L421.1 72Z" fill="#0c2435" stroke="#0c2435"></path><path d="M577.7 462L651.5 456L644.5 388Z" fill="#19435d" stroke="#19435d"></path><path d="M733.4 370L741.4 309L658.5 292Z" fill="#15384f" stroke="#15384f"></path><path d="M653.5 519L651.5 456L577.7 462Z" fill="#15384f" stroke="#15384f"></path><path d="M255.5 439L330.3 529L336.3 448Z" fill="#205a7a" stroke="#205a7a"></path><path d="M402.1 600L478.9 600L478.9 536Z" fill="#112e42" stroke="#112e42"></path><path d="M733.4 370L658.5 292L644.5 388Z" fill="#246688" stroke="#246688"></path><path d="M658.5 292L747.4 210L651.5 216Z" fill="#297ea6" stroke="#297ea6"></path><path d="M659.5 154L724.4 85L644.5 71Z" fill="#246688" stroke="#246688"></path><path d="M173.6 232L151.6 303L244.5 288Z" fill="#081a28" stroke="#081a28"></path><path d="M257.5 86L165.6 153L251.5 148Z" fill="#112e42" stroke="#112e42"></path><path d="M173.6 232L82.8 239L151.6 303Z" fill="#00101c" stroke="#00101c"></path><path d="M152.6 89L165.6 153L257.5 86Z" fill="#246688" stroke="#246688"></path><path d="M741.4 309L747.4 210L658.5 292Z" fill="#00101c" stroke="#00101c"></path><path d="M478.9 536L564.7 538L500.9 449Z" fill="#277297" stroke="#277297"></path><path d="M734.4 463L733.4 370L644.5 388Z" fill="#081a28" stroke="#081a28"></path><path d="M747.4 210L739.4 156L659.5 154Z" fill="#246688" stroke="#246688"></path><path d="M644.5 71L648.5 0L577.7 63Z" fill="#277297" stroke="#277297"></path><path d="M151.6 303L157.6 369L244.5 288Z" fill="#205a7a" stroke="#205a7a"></path><path d="M255.5 439L231.5 519L330.3 529Z" fill="#112e42" stroke="#112e42"></path><path d="M739.4 156L724.4 85L659.5 154Z" fill="#15384f" stroke="#15384f"></path><path d="M724.4 85L648.5 0L644.5 71Z" fill="#112e42" stroke="#112e42"></path><path d="M564.7 538L653.5 519L577.7 462Z" fill="#112e42" stroke="#112e42"></path><path d="M651.5 456L734.4 463L644.5 388Z" fill="#15384f" stroke="#15384f"></path><path d="M321.3 0L231.5 0L257.5 86Z" fill="#15384f" stroke="#15384f"></path><path d="M231.5 0L152.6 89L257.5 86Z" fill="#0c2435" stroke="#0c2435"></path><path d="M90.8 154L82.8 239L173.6 232Z" fill="#297ea6" stroke="#297ea6"></path><path d="M175.6 462L231.5 519L255.5 439Z" fill="#277297" stroke="#277297"></path><path d="M157.6 369L175.6 462L242.5 378Z" fill="#00101c" stroke="#00101c"></path><path d="M402.1 600L400.1 516L330.3 529Z" fill="#00101c" stroke="#00101c"></path><path d="M402.1 600L478.9 536L400.1 516Z" fill="#112e42" stroke="#112e42"></path><path d="M478.9 536L478.9 600L564.7 538Z" fill="#00101c" stroke="#00101c"></path><path d="M564.7 538L582.7 600L653.5 519Z" fill="#297ea6" stroke="#297ea6"></path><path d="M321.3 600L402.1 600L330.3 529Z" fill="#246688" stroke="#246688"></path><path d="M653.5 519L734.4 463L651.5 456Z" fill="#15384f" stroke="#15384f"></path><path d="M830.2 304L808.2 226L741.4 309Z" fill="#112e42" stroke="#112e42"></path><path d="M741.4 309L808.2 226L747.4 210Z" fill="#15384f" stroke="#15384f"></path><path d="M830.2 304L741.4 309L830.2 368Z" fill="#297ea6" stroke="#297ea6"></path><path d="M747.4 210L812.2 149L739.4 156Z" fill="#246688" stroke="#246688"></path><path d="M739.4 156L812.2 149L724.4 85Z" fill="#00101c" stroke="#00101c"></path><path d="M90.8 154L173.6 232L165.6 153Z" fill="#205a7a" stroke="#205a7a"></path><path d="M151.6 303L88.8 369L157.6 369Z" fill="#246688" stroke="#246688"></path><path d="M157.6 369L68.8 453L175.6 462Z" fill="#081a28" stroke="#081a28"></path><path d="M245.5 600L321.3 600L330.3 529Z" fill="#112e42" stroke="#112e42"></path><path d="M478.9 600L582.7 600L564.7 538Z" fill="#1d4e6b" stroke="#1d4e6b"></path><path d="M653.5 519L722.4 534L734.4 463Z" fill="#15384f" stroke="#15384f"></path><path d="M73.8 76L90.8 154L152.6 89Z" fill="#277297" stroke="#277297"></path><path d="M152.6 89L90.8 154L165.6 153Z" fill="#112e42" stroke="#112e42"></path><path d="M68.8 311L88.8 369L151.6 303Z" fill="#1d4e6b" stroke="#1d4e6b"></path><path d="M808.2 226L812.2 149L747.4 210Z" fill="#112e42" stroke="#112e42"></path><path d="M724.4 85L744.4 0L648.5 0Z" fill="#19435d" stroke="#19435d"></path><path d="M82.8 239L68.8 311L151.6 303Z" fill="#246688" stroke="#246688"></path><path d="M0 294L68.8 311L82.8 239Z" fill="#19435d" stroke="#19435d"></path><path d="M830.2 368L741.4 309L733.4 370Z" fill="#081a28" stroke="#081a28"></path><path d="M808.2 226L900 157L812.2 149Z" fill="#246688" stroke="#246688"></path><path d="M231.5 0L152.6 0L152.6 89Z" fill="#19435d" stroke="#19435d"></path><path d="M649.5 600L722.4 534L653.5 519Z" fill="#19435d" stroke="#19435d"></path><path d="M821.2 442L830.2 368L733.4 370Z" fill="#00101c" stroke="#00101c"></path><path d="M809.2 61L744.4 0L724.4 85Z" fill="#15384f" stroke="#15384f"></path><path d="M177.6 600L245.5 600L231.5 519Z" fill="#112e42" stroke="#112e42"></path><path d="M231.5 519L245.5 600L330.3 529Z" fill="#19435d" stroke="#19435d"></path><path d="M150.6 532L231.5 519L175.6 462Z" fill="#00101c" stroke="#00101c"></path><path d="M821.2 442L733.4 370L734.4 463Z" fill="#246688" stroke="#246688"></path><path d="M582.7 600L649.5 600L653.5 519Z" fill="#112e42" stroke="#112e42"></path><path d="M77.8 512L150.6 532L175.6 462Z" fill="#0c2435" stroke="#0c2435"></path><path d="M900 84L809.2 61L812.2 149Z" fill="#1d4e6b" stroke="#1d4e6b"></path><path d="M812.2 149L809.2 61L724.4 85Z" fill="#205a7a" stroke="#205a7a"></path><path d="M152.6 0L73.8 76L152.6 89Z" fill="#0c2435" stroke="#0c2435"></path><path d="M0 151L0 236L82.8 239Z" fill="#205a7a" stroke="#205a7a"></path><path d="M830.2 512L821.2 442L734.4 463Z" fill="#246688" stroke="#246688"></path><path d="M0 373L68.8 453L88.8 369Z" fill="#246688" stroke="#246688"></path><path d="M88.8 369L68.8 453L157.6 369Z" fill="#112e42" stroke="#112e42"></path><path d="M88.8 600L177.6 600L150.6 532Z" fill="#00101c" stroke="#00101c"></path><path d="M150.6 532L177.6 600L231.5 519Z" fill="#277297" stroke="#277297"></path><path d="M809.2 61L803.2 0L744.4 0Z" fill="#1d4e6b" stroke="#1d4e6b"></path><path d="M152.6 0L82.8 0L73.8 76Z" fill="#00101c" stroke="#00101c"></path><path d="M0 151L90.8 154L73.8 76Z" fill="#19435d" stroke="#19435d"></path><path d="M0 151L82.8 239L90.8 154Z" fill="#081a28" stroke="#081a28"></path><path d="M68.8 311L0 373L88.8 369Z" fill="#112e42" stroke="#112e42"></path><path d="M0 236L0 294L82.8 239Z" fill="#205a7a" stroke="#205a7a"></path><path d="M68.8 453L77.8 512L175.6 462Z" fill="#112e42" stroke="#112e42"></path><path d="M0 464L77.8 512L68.8 453Z" fill="#081a28" stroke="#081a28"></path><path d="M649.5 600L742.4 600L722.4 534Z" fill="#0c2435" stroke="#0c2435"></path><path d="M722.4 534L830.2 512L734.4 463Z" fill="#277297" stroke="#277297"></path><path d="M900 285L900 230L830.2 304Z" fill="#246688" stroke="#246688"></path><path d="M830.2 304L900 230L808.2 226Z" fill="#19435d" stroke="#19435d"></path><path d="M809.2 61L900 0L803.2 0Z" fill="#277297" stroke="#277297"></path><path d="M900 285L830.2 304L900 363Z" fill="#19435d" stroke="#19435d"></path><path d="M900 363L830.2 304L830.2 368Z" fill="#205a7a" stroke="#205a7a"></path><path d="M900 363L830.2 368L900 451Z" fill="#081a28" stroke="#081a28"></path><path d="M0 67L0 151L73.8 76Z" fill="#246688" stroke="#246688"></path><path d="M742.4 600L830.2 512L722.4 534Z" fill="#1d4e6b" stroke="#1d4e6b"></path><path d="M0 294L0 373L68.8 311Z" fill="#081a28" stroke="#081a28"></path><path d="M900 230L900 157L808.2 226Z" fill="#246688" stroke="#246688"></path><path d="M900 451L830.2 368L821.2 442Z" fill="#15384f" stroke="#15384f"></path><path d="M900 157L900 84L812.2 149Z" fill="#00101c" stroke="#00101c"></path><path d="M82.8 0L0 67L73.8 76Z" fill="#246688" stroke="#246688"></path><path d="M900 537L900 451L830.2 512Z" fill="#205a7a" stroke="#205a7a"></path><path d="M830.2 512L900 451L821.2 442Z" fill="#277297" stroke="#277297"></path><path d="M0 373L0 464L68.8 453Z" fill="#0c2435" stroke="#0c2435"></path><path d="M77.8 512L88.8 600L150.6 532Z" fill="#1d4e6b" stroke="#1d4e6b"></path><path d="M0 600L88.8 600L77.8 512Z" fill="#19435d" stroke="#19435d"></path><path d="M742.4 600L829.2 600L830.2 512Z" fill="#15384f" stroke="#15384f"></path><path d="M82.8 0L0 0L0 67Z" fill="#246688" stroke="#246688"></path><path d="M0 464L0 518L77.8 512Z" fill="#277297" stroke="#277297"></path><path d="M900 84L900 0L809.2 61Z" fill="#246688" stroke="#246688"></path><path d="M829.2 600L900 537L830.2 512Z" fill="#112e42" stroke="#112e42"></path><path d="M0 518L0 600L77.8 512Z" fill="#081a28" stroke="#081a28"></path><path d="M829.2 600L900 600L900 537Z" fill="#1d4e6b" stroke="#1d4e6b"></path></g></svg>